<mxfile host="app.diagrams.net" modified="2022-10-14T10:39:13.106Z" agent="5.0 (Windows NT 10.0; Win64; x64) AppleWebKit/537.36 (KHTML, like Gecko) Chrome/106.0.0.0 Safari/537.36 Edg/106.0.1370.42" etag="Bc4rQNyJYlZCWAW3iyHP" version="20.4.1" type="github">
  <diagram id="qCvpLoG0LG26lxwROqkd" name="PÃ¡gina-1">
    <mxGraphModel dx="1048" dy="583" grid="1" gridSize="10" guides="1" tooltips="1" connect="1" arrows="1" fold="1" page="1" pageScale="1" pageWidth="827" pageHeight="1169" math="0" shadow="0">
      <root>
        <mxCell id="0" />
        <mxCell id="1" parent="0" />
        <mxCell id="4kpxba99fA4EI12hZZfb-1" value="Navegador Cliente" style="swimlane;" vertex="1" parent="1">
          <mxGeometry x="160" y="160" width="120" height="120" as="geometry" />
        </mxCell>
        <mxCell id="4kpxba99fA4EI12hZZfb-7" value="Front End" style="text;html=1;strokeColor=none;fillColor=none;align=center;verticalAlign=middle;whiteSpace=wrap;rounded=0;" vertex="1" parent="4kpxba99fA4EI12hZZfb-1">
          <mxGeometry x="30" y="90" width="60" height="30" as="geometry" />
        </mxCell>
        <mxCell id="4kpxba99fA4EI12hZZfb-2" value="" style="endArrow=classic;startArrow=classic;html=1;rounded=0;exitX=1;exitY=0.5;exitDx=0;exitDy=0;entryX=0;entryY=0.5;entryDx=0;entryDy=0;" edge="1" parent="1" source="4kpxba99fA4EI12hZZfb-1" target="4kpxba99fA4EI12hZZfb-4">
          <mxGeometry width="50" height="50" relative="1" as="geometry">
            <mxPoint x="320" y="180" as="sourcePoint" />
            <mxPoint x="400" y="210" as="targetPoint" />
          </mxGeometry>
        </mxCell>
        <mxCell id="4kpxba99fA4EI12hZZfb-3" value="Servidor Web" style="swimlane;fontStyle=0;childLayout=stackLayout;horizontal=1;startSize=30;horizontalStack=0;resizeParent=1;resizeParentMax=0;resizeLast=0;collapsible=1;marginBottom=0;" vertex="1" parent="1">
          <mxGeometry x="450" y="175" width="140" height="90" as="geometry">
            <mxRectangle x="450" y="120" width="60" height="30" as="alternateBounds" />
          </mxGeometry>
        </mxCell>
        <mxCell id="4kpxba99fA4EI12hZZfb-4" value="Front" style="text;strokeColor=none;fillColor=none;align=left;verticalAlign=middle;spacingLeft=4;spacingRight=4;overflow=hidden;points=[[0,0.5],[1,0.5]];portConstraint=eastwest;rotatable=0;" vertex="1" parent="4kpxba99fA4EI12hZZfb-3">
          <mxGeometry y="30" width="140" height="30" as="geometry" />
        </mxCell>
        <mxCell id="4kpxba99fA4EI12hZZfb-13" value="" style="curved=1;endArrow=classic;html=1;rounded=0;" edge="1" parent="4kpxba99fA4EI12hZZfb-3">
          <mxGeometry width="50" height="50" relative="1" as="geometry">
            <mxPoint x="40" y="75" as="sourcePoint" />
            <mxPoint x="40" y="45" as="targetPoint" />
            <Array as="points">
              <mxPoint x="70" y="65" />
              <mxPoint x="60" y="55" />
            </Array>
          </mxGeometry>
        </mxCell>
        <mxCell id="4kpxba99fA4EI12hZZfb-5" value="Back" style="text;strokeColor=none;fillColor=none;align=left;verticalAlign=middle;spacingLeft=4;spacingRight=4;overflow=hidden;points=[[0,0.5],[1,0.5]];portConstraint=eastwest;rotatable=0;" vertex="1" parent="4kpxba99fA4EI12hZZfb-3">
          <mxGeometry y="60" width="140" height="30" as="geometry" />
        </mxCell>
        <mxCell id="4kpxba99fA4EI12hZZfb-11" value="BD Server" style="swimlane;" vertex="1" parent="1">
          <mxGeometry x="450" y="265" width="140" height="90" as="geometry" />
        </mxCell>
        <mxCell id="4kpxba99fA4EI12hZZfb-15" value="" style="shape=cylinder3;whiteSpace=wrap;html=1;boundedLbl=1;backgroundOutline=1;size=15;" vertex="1" parent="4kpxba99fA4EI12hZZfb-11">
          <mxGeometry x="30" y="40" width="30" height="40" as="geometry" />
        </mxCell>
        <mxCell id="4kpxba99fA4EI12hZZfb-17" value="" style="shape=cylinder3;whiteSpace=wrap;html=1;boundedLbl=1;backgroundOutline=1;size=15;" vertex="1" parent="4kpxba99fA4EI12hZZfb-11">
          <mxGeometry x="30" y="30" width="30" height="40" as="geometry" />
        </mxCell>
        <mxCell id="4kpxba99fA4EI12hZZfb-18" value="" style="curved=1;endArrow=classic;html=1;rounded=0;entryX=0.286;entryY=0.5;entryDx=0;entryDy=0;entryPerimeter=0;" edge="1" parent="4kpxba99fA4EI12hZZfb-11" target="4kpxba99fA4EI12hZZfb-5">
          <mxGeometry width="50" height="50" relative="1" as="geometry">
            <mxPoint x="70" y="65" as="sourcePoint" />
            <mxPoint x="210" y="-25" as="targetPoint" />
            <Array as="points">
              <mxPoint x="120" y="65" />
              <mxPoint x="120" y="15" />
            </Array>
          </mxGeometry>
        </mxCell>
      </root>
    </mxGraphModel>
  </diagram>
</mxfile>
